<?xml version="1.0" encoding="UTF-8" standalone="no"?>
<svg
   width="180.05792mm"
   height="7.1917281mm"
   viewBox="0 0 2552.0021 101.93001"
   version="1.2"
   id="svg28"
   xmlns="http://www.w3.org/2000/svg"
   xmlns:svg="http://www.w3.org/2000/svg">
  <defs
     id="defs28" />
  <title
     id="title1">Untitled score</title>
  <desc
     id="desc1">Generated by MuseScore Studio 4.6.5</desc>
  <polyline
     class="StaffLines"
     fill="none"
     stroke="#000000"
     stroke-width="2.73"
     stroke-linejoin="bevel"
     points="212.598,1874.2 2764.6,1874.2"
     id="polyline16"
     transform="translate(-212.59801,-1872.835)" />
  <polyline
     class="StaffLines"
     fill="none"
     stroke="#000000"
     stroke-width="2.73"
     stroke-linejoin="bevel"
     points="212.598,1899 2764.6,1899"
     id="polyline17"
     transform="translate(-212.59801,-1872.835)" />
  <polyline
     class="StaffLines"
     fill="none"
     stroke="#000000"
     stroke-width="2.73"
     stroke-linejoin="bevel"
     points="212.598,1923.8 2764.6,1923.8"
     id="polyline18"
     transform="translate(-212.59801,-1872.835)" />
  <polyline
     class="StaffLines"
     fill="none"
     stroke="#000000"
     stroke-width="2.73"
     stroke-linejoin="bevel"
     points="212.598,1948.6 2764.6,1948.6"
     id="polyline19"
     transform="translate(-212.59801,-1872.835)" />
  <polyline
     class="StaffLines"
     fill="none"
     stroke="#000000"
     stroke-width="2.73"
     stroke-linejoin="bevel"
     points="212.598,1973.4 2764.6,1973.4"
     id="polyline20"
     transform="translate(-212.59801,-1872.835)" />
  <path
     class="Clef"
     d="m 19.886495,4.4340488 c -0.6975,0 -1.2865,0.6045 -1.2865,1.2865 V 96.008049 c 0,0.6975 0.589,1.2865 1.2865,1.2865 h 7.1455 c 0.6975,0 1.2865,-0.589 1.2865,-1.2865 V 5.7205488 c 0,-0.682 -0.589,-1.2865 -1.2865,-1.2865 h -7.1455 m 60.91498,72.4315002 c 0,-12.307 -6.54096,-21.9325 -19.54548,-21.9325 -2.27852,0 -3.968,0.2015 -7.82748,2.573 -0.20147,-0.3875 -2.18547,-4.3555 -5.456,-6.634 3.27053,-2.294 5.25453,-6.262 5.456,-6.6495 3.76653,2.2785 5.05296,2.573 9.31548,2.573 12.10548,0 18.05748,-11.2065 18.05748,-21.917 0,-13.888 -10.21443,-21.7310002 -22.22696,-21.7310002 -7.44,0 -18.05747,3.069 -18.05747,12.1985002 0,4.867 3.37895,8.0445 8.246,8.0445 4.35547,0 7.44,-3.1775 7.44,-7.5485 0,-5.456 -3.58053,-7.2385002 -8.33905,-7.2385002 2.27852,-1.581 5.36305,-2.48 8.432,-2.48 10.416,0 12.10548,8.3390002 12.10548,17.2670002 0,7.6415 -0.20148,18.7395 -8.928,18.7395 -8.72643,0 -10.50896,-9.424 -10.71043,-10.416 0,-0.093 0,-1.3795 -1.39505,-1.3795 -1.37948,0 -1.488,1.2865 -1.488,1.3795 -0.88348,5.456 -3.56495,14.9885 -9.12948,17.267 V 5.7205488 c 0,-0.682 -0.496,-1.2865 -1.19347,-1.2865 -0.682,0 -1.28653,0.6045 -1.28653,1.2865 V 96.008049 c 0,0.6975 0.60453,1.2865 1.28653,1.2865 0.69747,0 1.19347,-0.589 1.19347,-1.2865 v -43.2605 c 5.85896,2.387 8.04453,11.811 9.12948,17.36 0,0.1085 0.10852,1.2865 1.488,1.2865 1.39505,0 1.39505,-1.178 1.39505,-1.2865 0.20147,-1.085 1.984,-10.509 10.71043,-10.509 8.72652,0 8.928,11.1135 8.928,18.755 0,8.928 -1.68948,17.2515 -12.10548,17.2515 -3.06895,0 -6.15348,-0.8835 -8.432,-2.48 0.10852,0 0.496,0.1085 1.10052,0.1085 4.35548,0 7.23853,-3.0845 7.23853,-7.347 0,-4.371 -3.08453,-7.533 -7.44,-7.533 -4.86705,0 -8.246,3.162 -8.246,8.029 0,9.1295 10.61747,12.1985 18.05747,12.1985 12.01253,0 22.22696,-7.8275 22.22696,-21.7155"
     id="path27"
     style="stroke-width:0.992" />
</svg>
