<?xml version="1.0" encoding="UTF-8" standalone="no"?>
<svg
   width="175.698mm"
   height="12.445288mm"
   viewBox="0 0 2490.2079 176.38991"
   version="1.2"
   id="svg37"
   xmlns="http://www.w3.org/2000/svg"
   xmlns:svg="http://www.w3.org/2000/svg">
  <defs
     id="defs37" />
  <title
     id="title1">Untitled score</title>
  <desc
     id="desc1">Generated by MuseScore Studio 4.6.5</desc>
  <polyline
     class="StaffLines"
     fill="none"
     stroke="#000000"
     stroke-width="2.73"
     stroke-linejoin="bevel"
     points="336.598,723.664 2764.6,723.664"
     id="polyline6"
     transform="translate(-274.392,-687.75059)" />
  <polyline
     class="StaffLines"
     fill="none"
     stroke="#000000"
     stroke-width="2.73"
     stroke-linejoin="bevel"
     points="336.598,748.464 2764.6,748.464"
     id="polyline7"
     transform="translate(-274.392,-687.75059)" />
  <polyline
     class="StaffLines"
     fill="none"
     stroke="#000000"
     stroke-width="2.73"
     stroke-linejoin="bevel"
     points="336.598,773.264 2764.6,773.264"
     id="polyline8"
     transform="translate(-274.392,-687.75059)" />
  <polyline
     class="StaffLines"
     fill="none"
     stroke="#000000"
     stroke-width="2.73"
     stroke-linejoin="bevel"
     points="336.598,798.064 2764.6,798.064"
     id="polyline9"
     transform="translate(-274.392,-687.75059)" />
  <polyline
     class="StaffLines"
     fill="none"
     stroke="#000000"
     stroke-width="2.73"
     stroke-linejoin="bevel"
     points="336.598,822.864 2764.6,822.864"
     id="polyline10"
     transform="translate(-274.392,-687.75059)" />
  <path
     class="InstrumentName"
     d="m 19.313005,67.217402 h -2.11 l -11.4999991,29.14 c -1.343,3.906008 -2.64,5.110008 -5.50000004,5.313008 H 5.8582613e-6 v 2.343 H 13.250005 v -2.343 h -1 c -2.6869991,0 -4.0469991,-0.953 -4.0469991,-2.860008 0,-0.64 0.157,-1.25 0.453,-2.093 l 1.6569991,-4.407 h 13.25 l 2.703,6.703 c 0.297,0.797 0.39,1.094008 0.39,1.344008 0,0.813 -1.25,1.313 -3.093,1.313 h -2.11 v 2.343 h 15.5 v -2.343 h -0.687 c -2.61,-0.063 -3.063,-0.36 -4.203,-3.203008 l -12.75,-31.25 m -2.453,8.187 5.64,14.203 h -11.187 l 5.547,-14.203"
     id="path21" />
  <polyline
     class="BarLine"
     fill="none"
     stroke="#000000"
     stroke-width="4.46"
     stroke-linejoin="bevel"
     points="338.83,722.3 338.83,824.228"
     id="polyline26"
     transform="translate(-274.392,-687.75059)" />
  <polyline
     class="BarLine"
     fill="none"
     stroke="#000000"
     stroke-width="4.46"
     stroke-linejoin="bevel"
     points="2739.55,722.3 2739.55,824.228"
     id="polyline27"
     transform="translate(-274.392,-687.75059)" />
  <polyline
     class="BarLine"
     fill="none"
     stroke="#000000"
     stroke-width="13.64"
     stroke-linejoin="bevel"
     points="2757.78,722.3 2757.78,824.228"
     id="polyline28"
     transform="translate(-274.392,-687.75059)" />
  <path
     class="Clef"
     d="m 126.934,130.74246 c -1.984,0.40295 -3.85948,0.60443 -5.75052,0.60443 -14.18243,0 -26.287975,-9.92 -26.287975,-24.90848 0,-12.090058 8.525015,-22.909008 17.267015,-30.457528 1.674,-1.488 3.27053,-2.86748 4.75853,-4.35548 0.88347,5.34748 1.58095,10.01295 2.27843,14.08948 -9.03643,2.68147 -15.17443,12.19852 -15.17443,21.529528 0,6.944 5.456,16.461 13.392,16.461 0.79043,0 1.68947,-0.40295 1.68947,-1.28652 0,-0.89896 -0.992,-1.39496 -2.18547,-2.18548 -3.87505,-2.387 -6.06053,-4.96 -6.06053,-9.827 0,-6.045 4.464,-10.912058 10.32296,-12.291528 L 126.934,130.74246 M 118.20748,28.767922 c 0.89904,-3.968 5.456,-14.384 10.61757,-14.384 1.488,0 3.85947,4.85148 3.85947,11.70243 0,10.32305 -7.626,18.05757 -14.47704,24.8 -0.58896,-3.968 -1.08496,-7.82747 -1.08496,-11.99695 0,-3.67348 0.29453,-7.05252 1.08496,-10.12148 m 22.816,83.622488 c 0,7.0525 -2.88296,14.291 -9.92,17.17405 -2.07696,-11.90405 -4.75843,-27.68305 -5.456,-32.054108 8.928,0 15.376,6.060558 15.376,14.880058 m -43.647995,48.80952 c 0,6.55653 5.053035,15.19 18.445035,15.19 4.66548,0 8.742,-1.19347 12.30696,-3.37904 5.36304,-3.76643 6.74252,-10.32296 6.74252,-16.56948 0,-3.85948 -0.58895,-8.32348 -1.58095,-13.98095 -0.29453,-1.984 -0.89905,-4.96 -1.488,-8.83505 9.71843,-3.17748 16.95695,-13.29895 16.95695,-23.5135 0,-14.973028 -10.61748,-25.094508 -25.09452,-25.094508 -0.992,-5.952 -1.984,-11.81105 -2.88296,-17.36 10.52453,-11.02052 17.76296,-23.42052 17.76296,-39.184 0,-9.03652 -2.77443,-16.368 -4.37096,-19.9481295 -2.37147,-5.05325 -5.25452,-8.525249938566 -7.03704,-8.525249938566 -0.69748,0 -3.76643,1.193379938566 -7.03696,5.053249938566 -6.35504,7.5481295 -8.13747,20.2426495 -8.13747,28.5661295 0,5.36295 0.496,10.23 2.18547,21.34348 -0.10852,0.093 -5.27,5.34747 -7.34704,7.03704 -9.036425,8.432 -21.529475,20.42896 -21.529475,40.284488 0,18.53805 16.166515,33.12352 34.627045,33.12352 2.86747,0 5.54895,-0.29452 7.82747,-0.69747 1.89096,9.53243 2.976,16.47643 2.976,21.73095 0,10.32305 -5.25452,15.77905 -15.26747,15.77905 -2.38705,0 -4.464,-0.496 -4.66557,-0.496 -0.093,-0.10853 -0.29443,-0.20157 -0.29443,-0.29453 0,-0.20147 0.20147,-0.31 0.496,-0.40304 4.66547,-0.69748 9.31547,-4.66548 9.31547,-11.00496 0,-5.36304 -4.06104,-11.02052 -11.50104,-11.02052 -6.944,0 -11.407995,5.65748 -11.407995,12.19852"
     id="path35"
     style="stroke-width:0.992" />
</svg>
