<?xml version="1.0" encoding="UTF-8" standalone="no"?>
<svg
   width="175.35185mm"
   height="7.1920753mm"
   viewBox="0 0 2485.3019 101.93493"
   version="1.2"
   id="svg37"
   xmlns="http://www.w3.org/2000/svg"
   xmlns:svg="http://www.w3.org/2000/svg">
  <defs
     id="defs37" />
  <title
     id="title1">Untitled score</title>
  <desc
     id="desc1">Generated by MuseScore Studio 4.6.5</desc>
  <polyline
     class="StaffLines"
     fill="none"
     stroke="#000000"
     stroke-width="2.73"
     stroke-linejoin="bevel"
     points="336.598,1398.6 2764.6,1398.6"
     id="polyline16"
     transform="translate(-279.29802,-1397.2299)" />
  <polyline
     class="StaffLines"
     fill="none"
     stroke="#000000"
     stroke-width="2.73"
     stroke-linejoin="bevel"
     points="336.598,1423.4 2764.6,1423.4"
     id="polyline17"
     transform="translate(-279.29802,-1397.2299)" />
  <polyline
     class="StaffLines"
     fill="none"
     stroke="#000000"
     stroke-width="2.73"
     stroke-linejoin="bevel"
     points="336.598,1448.2 2764.6,1448.2"
     id="polyline18"
     transform="translate(-279.29802,-1397.2299)" />
  <polyline
     class="StaffLines"
     fill="none"
     stroke="#000000"
     stroke-width="2.73"
     stroke-linejoin="bevel"
     points="336.598,1473 2764.6,1473"
     id="polyline19"
     transform="translate(-279.29802,-1397.2299)" />
  <polyline
     class="StaffLines"
     fill="none"
     stroke="#000000"
     stroke-width="2.73"
     stroke-linejoin="bevel"
     points="336.598,1497.8 2764.6,1497.8"
     id="polyline20"
     transform="translate(-279.29802,-1397.2299)" />
  <path
     class="InstrumentName"
     d="m -2.119545e-5,32.860112 v 2.36 H 0.9069788 c 2.843,0.04 3.797,0.2 4.187,0.7 0.313,0.44 0.313,0.55 0.313,3.09 v 23.8 c 0,2.56 0,2.66 -0.313,3.11 -0.39,0.5 -1.344,0.7 -4.187,0.7 H -2.119545e-5 v 2.35 H 18.156979 c 8.64,0 13.843,-3.66 13.843,-9.8 0,-5 -3.14,-7.86 -10,-9.05 2.407,-0.5 3.5,-0.95 4.797,-1.9 2.063,-1.55 3.313,-4 3.313,-6.5 0,-3.25 -2,-6.41 -4.906,-7.66 -1.797,-0.8 -4.297,-1.2 -7.25,-1.2 H -2.119545e-5 M 10.999979,49.120112 v -11.4 c 0,-1.96 0.657,-2.46 3.297,-2.5 h 2 c 4.907,0 8,1.59 8,7.04 0,4.96 -2.39,6.86 -8.843,6.86 h -4.454 m 0,2.35 h 4.407 c 7.64,0 10.453,2.04 10.453,7.54 0,6.71 -4.203,7.61 -9.86,7.61 h -2.093 c -2.5,0 -3,-0.5 -2.907,-3.15 v -12"
     id="path23" />
  <polyline
     class="BarLine"
     fill="none"
     stroke="#000000"
     stroke-width="4.46"
     stroke-linejoin="bevel"
     points="338.83,1397.23 338.83,1499.16"
     id="polyline32"
     transform="translate(-279.29802,-1397.2299)" />
  <polyline
     class="BarLine"
     fill="none"
     stroke="#000000"
     stroke-width="4.46"
     stroke-linejoin="bevel"
     points="2739.55,1397.23 2739.55,1499.16"
     id="polyline33"
     transform="translate(-279.29802,-1397.2299)" />
  <polyline
     class="BarLine"
     fill="none"
     stroke="#000000"
     stroke-width="13.64"
     stroke-linejoin="bevel"
     points="2757.78,1397.23 2757.78,1499.16"
     id="polyline34"
     transform="translate(-279.29802,-1397.2299)" />
  <path
     class="Clef"
     d="m 136.7065,13.863112 c 0,2.79 2.18548,4.96 4.774,4.96 2.57296,0 4.75853,-2.17 4.75853,-4.96 0,-2.7745 -2.18557,-5.0530004 -4.75853,-5.0530004 -2.58852,0 -4.774,2.2785004 -4.774,5.0530004 M 105.56703,1.2771116 c -7.548531,0 -13.593571,4.3555 -13.702001,4.3555 -5.84355,4.2625 -9.61005,10.8190004 -9.61005,18.0575004 0,7.2385 4.154,12.6015 11.501,12.6015 6.355051,0 11.315051,-4.2625 11.315051,-10.819 0,-5.6575 -4.96,-10.3075 -10.524531,-10.3075 -1.19347,0 -2.27852,0.186 -3.17747,0.496 -0.992,0.3875 -2.66605,1.3795 -3.47205,2.077 0.6975,-4.371 3.67352,-8.7265004 7.54848,-10.8190004 2.48,-1.3795 5.657571,-1.984 9.129571,-1.984 10.12147,0 15.08147,8.1375004 15.08147,24.8000004 0,12.896 -8.246,31.4495 -17.96452,40.1915 -10.322951,9.424 -20.041501,13.888 -20.134501,13.888 0,0 -1.1935,0.682 -1.1935,1.8755 0,0.2015 0.093,0.2945 0.093,0.496 0.31,0.992 1.1935,1.1935 1.798,1.1935 0.093,0 0.3875,-0.093 0.496,-0.093 0.093,0 11.40805,-4.6655 20.429001,-11.718 13.888,-10.013 29.55852,-27.6675 29.55852,-45.9265 0,-17.267 -9.31547,-28.3650004 -27.17147,-28.3650004 M 136.7065,38.368612 c 0,2.7745 2.18548,5.0685 4.774,5.0685 2.57296,0 4.75853,-2.294 4.75853,-5.0685 0,-2.7745 -2.18557,-5.053 -4.75853,-5.053 -2.58852,0 -4.774,2.2785 -4.774,5.053"
     id="path37"
     style="stroke-width:0.992" />
</svg>
