<?xml version="1.0" encoding="UTF-8" standalone="no"?>
<svg
   width="180.05792mm"
   height="7.1917281mm"
   viewBox="0 0 2552.0021 101.93001"
   version="1.2"
   id="svg28"
   xmlns="http://www.w3.org/2000/svg"
   xmlns:svg="http://www.w3.org/2000/svg">
  <defs
     id="defs28" />
  <title
     id="title1">Untitled score</title>
  <desc
     id="desc1">Generated by MuseScore Studio 4.6.5</desc>
  <polyline
     class="StaffLines"
     fill="none"
     stroke="#000000"
     stroke-width="2.73"
     stroke-linejoin="bevel"
     points="212.598,2370.2 2764.6,2370.2"
     id="polyline21"
     transform="translate(-212.59801,-2368.835)" />
  <polyline
     class="StaffLines"
     fill="none"
     stroke="#000000"
     stroke-width="2.73"
     stroke-linejoin="bevel"
     points="212.598,2395 2764.6,2395"
     id="polyline22"
     transform="translate(-212.59801,-2368.835)" />
  <polyline
     class="StaffLines"
     fill="none"
     stroke="#000000"
     stroke-width="2.73"
     stroke-linejoin="bevel"
     points="212.598,2419.8 2764.6,2419.8"
     id="polyline23"
     transform="translate(-212.59801,-2368.835)" />
  <polyline
     class="StaffLines"
     fill="none"
     stroke="#000000"
     stroke-width="2.73"
     stroke-linejoin="bevel"
     points="212.598,2444.6 2764.6,2444.6"
     id="polyline24"
     transform="translate(-212.59801,-2368.835)" />
  <polyline
     class="StaffLines"
     fill="none"
     stroke="#000000"
     stroke-width="2.73"
     stroke-linejoin="bevel"
     points="212.598,2469.4 2764.6,2469.4"
     id="polyline25"
     transform="translate(-212.59801,-2368.835)" />
  <path
     class="Clef"
     d="m 74.942515,13.858051 c 0,2.79 2.18548,4.96 4.774,4.96 2.57296,0 4.75853,-2.17 4.75853,-4.96 0,-2.7745 -2.18557,-5.0529997 -4.75853,-5.0529997 -2.58852,0 -4.774,2.2784997 -4.774,5.0529997 M 43.803045,1.2720513 c -7.54853,0 -13.59357,4.3555 -13.702,4.3555 -5.84355,4.2625 -9.61005,10.8189997 -9.61005,18.0574997 0,7.2385 4.154,12.6015 11.501,12.6015 6.35505,0 11.31505,-4.2625 11.31505,-10.819 0,-5.6575 -4.96,-10.3075 -10.52453,-10.3075 -1.19347,0 -2.27852,0.186 -3.17747,0.496 -0.992,0.3875 -2.66605,1.3795 -3.47205,2.077 0.6975,-4.371 3.67352,-8.7264997 7.54848,-10.8189997 2.48,-1.3795 5.65757,-1.984 9.12957,-1.984 10.12147,0 15.08147,8.1374997 15.08147,24.7999997 0,12.896 -8.246,31.4495 -17.96452,40.1915 -10.32295,9.424 -20.0415,13.888 -20.1345,13.888 0,0 -1.1935,0.682 -1.1935,1.8755 0,0.2015 0.093,0.2945 0.093,0.496 0.31,0.992 1.1935,1.1935 1.798,1.1935 0.093,0 0.3875,-0.093 0.496,-0.093 0.093,0 11.40805,-4.6655 20.429,-11.718 13.888,-10.013 29.55852,-27.6675 29.55852,-45.9265 0,-17.267 -9.31547,-28.3649997 -27.17147,-28.3649997 m 31.13947,37.0914997 c 0,2.7745 2.18548,5.0685 4.774,5.0685 2.57296,0 4.75853,-2.294 4.75853,-5.0685 0,-2.7745 -2.18557,-5.053 -4.75853,-5.053 -2.58852,0 -4.774,2.2785 -4.774,5.053"
     id="path28"
     style="stroke-width:0.992" />
</svg>
