<?xml version="1.0" encoding="UTF-8" standalone="no"?>
<svg
   width="180.05792mm"
   height="7.1917281mm"
   viewBox="0 0 2552.0021 101.93001"
   version="1.2"
   id="svg28"
   xmlns="http://www.w3.org/2000/svg"
   xmlns:svg="http://www.w3.org/2000/svg">
  <defs
     id="defs28" />
  <title
     id="title1">Untitled score</title>
  <desc
     id="desc1">Generated by MuseScore Studio 4.6.5</desc>
  <polyline
     class="StaffLines"
     fill="none"
     stroke="#000000"
     stroke-width="2.73"
     stroke-linejoin="bevel"
     points="212.598,2370.2 2764.6,2370.2"
     id="polyline21"
     transform="translate(-212.59801,-2368.835)" />
  <polyline
     class="StaffLines"
     fill="none"
     stroke="#000000"
     stroke-width="2.73"
     stroke-linejoin="bevel"
     points="212.598,2395 2764.6,2395"
     id="polyline22"
     transform="translate(-212.59801,-2368.835)" />
  <polyline
     class="StaffLines"
     fill="none"
     stroke="#000000"
     stroke-width="2.73"
     stroke-linejoin="bevel"
     points="212.598,2419.8 2764.6,2419.8"
     id="polyline23"
     transform="translate(-212.59801,-2368.835)" />
  <polyline
     class="StaffLines"
     fill="none"
     stroke="#000000"
     stroke-width="2.73"
     stroke-linejoin="bevel"
     points="212.598,2444.6 2764.6,2444.6"
     id="polyline24"
     transform="translate(-212.59801,-2368.835)" />
  <polyline
     class="StaffLines"
     fill="none"
     stroke="#000000"
     stroke-width="2.73"
     stroke-linejoin="bevel"
     points="212.598,2469.4 2764.6,2469.4"
     id="polyline25"
     transform="translate(-212.59801,-2368.835)" />
  <path
     class="Clef"
     d="m 1298.9237,13.858051 c 0,2.79 2.1854,4.96 4.774,4.96 2.5729,0 4.7585,-2.17 4.7585,-4.96 0,-2.7745 -2.1856,-5.0529997 -4.7585,-5.0529997 -2.5886,0 -4.774,2.2784997 -4.774,5.0529997 M 1267.7842,1.2720513 c -7.5485,0 -13.5936,4.3555 -13.702,4.3555 -5.8436,4.2625 -9.6101,10.8189997 -9.6101,18.0574997 0,7.2385 4.154,12.6015 11.501,12.6015 6.3551,0 11.3151,-4.2625 11.3151,-10.819 0,-5.6575 -4.96,-10.3075 -10.5245,-10.3075 -1.1935,0 -2.2786,0.186 -3.1775,0.496 -0.992,0.3875 -2.6661,1.3795 -3.4721,2.077 0.6975,-4.371 3.6736,-8.7264997 7.5485,-10.8189997 2.48,-1.3795 5.6576,-1.984 9.1296,-1.984 10.1215,0 15.0815,8.1374997 15.0815,24.7999997 0,12.896 -8.246,31.4495 -17.9646,40.1915 -10.3229,9.424 -20.0415,13.888 -20.1345,13.888 0,0 -1.1935,0.682 -1.1935,1.8755 0,0.2015 0.093,0.2945 0.093,0.496 0.31,0.992 1.1935,1.1935 1.798,1.1935 0.093,0 0.3875,-0.093 0.496,-0.093 0.093,0 11.4081,-4.6655 20.429,-11.718 13.888,-10.013 29.5586,-27.6675 29.5586,-45.9265 0,-17.267 -9.3155,-28.3649997 -27.1715,-28.3649997 m 31.1395,37.0914997 c 0,2.7745 2.1854,5.0685 4.774,5.0685 2.5729,0 4.7585,-2.294 4.7585,-5.0685 0,-2.7745 -2.1856,-5.053 -4.7585,-5.053 -2.5886,0 -4.774,2.2785 -4.774,5.053"
     id="path28"
     style="stroke-width:0.992" />
</svg>
