<?xml version="1.0" encoding="UTF-8" standalone="no"?>
<svg
   width="174.99577mm"
   height="12.445286mm"
   viewBox="0 0 2480.2551 176.38988"
   version="1.2"
   id="svg37"
   xmlns="http://www.w3.org/2000/svg"
   xmlns:svg="http://www.w3.org/2000/svg">
  <defs
     id="defs37" />
  <title
     id="title1">Untitled score</title>
  <desc
     id="desc1">Generated by MuseScore Studio 4.6.5</desc>
  <polyline
     class="StaffLines"
     fill="none"
     stroke="#000000"
     stroke-width="2.73"
     stroke-linejoin="bevel"
     points="336.598,386.198 2764.6,386.198"
     id="polyline1"
     transform="translate(-284.34501,-350.28463)" />
  <polyline
     class="StaffLines"
     fill="none"
     stroke="#000000"
     stroke-width="2.73"
     stroke-linejoin="bevel"
     points="336.598,410.998 2764.6,410.998"
     id="polyline2"
     transform="translate(-284.34501,-350.28463)" />
  <polyline
     class="StaffLines"
     fill="none"
     stroke="#000000"
     stroke-width="2.73"
     stroke-linejoin="bevel"
     points="336.598,435.798 2764.6,435.798"
     id="polyline3"
     transform="translate(-284.34501,-350.28463)" />
  <polyline
     class="StaffLines"
     fill="none"
     stroke="#000000"
     stroke-width="2.73"
     stroke-linejoin="bevel"
     points="336.598,460.598 2764.6,460.598"
     id="polyline4"
     transform="translate(-284.34501,-350.28463)" />
  <polyline
     class="StaffLines"
     fill="none"
     stroke="#000000"
     stroke-width="2.73"
     stroke-linejoin="bevel"
     points="336.598,485.398 2764.6,485.398"
     id="polyline5"
     transform="translate(-284.34501,-350.28463)" />
  <path
     class="InstrumentName"
     d="m 24.749992,67.107366 h -1.843 l -2,3 c -2.407,-2.25 -5.547,-3.453 -9.11,-3.453 -6.5940006,0 -10.93700061,4.156 -10.93700061,10.453 0,5.453 2.68700001,8.156 10.04700061,10.063 l 4.75,1.187 c 3.703,0.953 4.046,1.063 5.093,1.86 1.5,1.14 2.313,2.796 2.313,4.75 0,2 -0.766,3.64 -2.266,5.046004 -1.64,1.407 -3.297,1.954 -6.047,1.954 -7.5470006,0 -11.2970006,-5.547004 -12.5930006,-12.297004 H -8.6082657e-6 L 0.20299139,103.92037 H 2.1569914 l 2.25,-3.407 c 3.343,2.75 6.0930006,3.75 10.5000006,3.75 7.343,0 12.046,-4.296004 12.046,-11.000004 0,-3.156 -1,-5.75 -3,-7.656 -1.343,-1.297 -3.296,-2.14 -7.296,-3.14 l -5.36,-1.36 c -4.4370006,-1.14 -6.5470006,-3.094 -6.5470006,-6.14 0,-3.5 2.86,-5.907 7.1100006,-5.907 6.437,0 10,5.344 11.343,11.047 h 2.157 l -0.61,-13"
     id="path20" />
  <polyline
     class="BarLine"
     fill="none"
     stroke="#000000"
     stroke-width="4.46"
     stroke-linejoin="bevel"
     points="338.83,384.834 338.83,486.762"
     id="polyline23"
     transform="translate(-284.34501,-350.28463)" />
  <polyline
     class="BarLine"
     fill="none"
     stroke="#000000"
     stroke-width="4.46"
     stroke-linejoin="bevel"
     points="2739.55,384.834 2739.55,486.762"
     id="polyline24"
     transform="translate(-284.34501,-350.28463)" />
  <polyline
     class="BarLine"
     fill="none"
     stroke="#000000"
     stroke-width="13.64"
     stroke-linejoin="bevel"
     points="2757.78,384.834 2757.78,486.762"
     id="polyline25"
     transform="translate(-284.34501,-350.28463)" />
  <path
     class="Clef"
     d="m 116.98099,130.74242 c -1.984,0.40295 -3.85948,0.60443 -5.75052,0.60443 -14.182428,0 -26.287978,-9.92 -26.287978,-24.90848 0,-12.090054 8.52502,-22.909004 17.267018,-30.457524 1.674,-1.488 3.27053,-2.86748 4.75853,-4.35548 0.88347,5.34748 1.58095,10.01295 2.27843,14.08948 -9.03643,2.68147 -15.174428,12.19852 -15.174428,21.529524 0,6.944 5.456,16.461 13.391998,16.461 0.79043,0 1.68947,-0.40295 1.68947,-1.28652 0,-0.89896 -0.992,-1.39496 -2.18547,-2.18548 -3.87505,-2.387 -6.06053,-4.96 -6.06053,-9.827 0,-6.045 4.464,-10.912054 10.32296,-12.291524 l 5.75052,32.627574 M 108.25447,28.767886 c 0.89904,-3.968 5.456,-14.384 10.61757,-14.384 1.488,0 3.85947,4.85148 3.85947,11.70243 0,10.32305 -7.626,18.05757 -14.47704,24.8 -0.58896,-3.968 -1.08496,-7.82747 -1.08496,-11.99695 0,-3.67348 0.29453,-7.05252 1.08496,-10.12148 m 22.816,83.622484 c 0,7.0525 -2.88296,14.291 -9.92,17.17405 -2.07696,-11.90405 -4.75843,-27.68305 -5.456,-32.054104 8.928,0 15.376,6.060554 15.376,14.880054 m -43.647998,48.80952 c 0,6.55653 5.05304,15.19 18.445038,15.19 4.66548,0 8.742,-1.19347 12.30696,-3.37904 5.36304,-3.76643 6.74252,-10.32296 6.74252,-16.56948 0,-3.85948 -0.58895,-8.32348 -1.58095,-13.98095 -0.29453,-1.984 -0.89905,-4.96 -1.488,-8.83505 9.71843,-3.17748 16.95695,-13.29895 16.95695,-23.5135 0,-14.973024 -10.61748,-25.094504 -25.09452,-25.094504 -0.992,-5.952 -1.984,-11.81105 -2.88296,-17.36 10.52453,-11.02052 17.76296,-23.42052 17.76296,-39.184 0,-9.03652 -2.77443,-16.368 -4.37096,-19.9481296 -2.37147,-5.05325 -5.25452,-8.525250034215 -7.03704,-8.525250034215 -0.69748,0 -3.76643,1.193380034215 -7.03696,5.053250034215 -6.35504,7.5481296 -8.13747,20.2426496 -8.13747,28.5661296 0,5.36295 0.496,10.23 2.18547,21.34348 -0.10852,0.093 -5.269998,5.34747 -7.347038,7.03704 -9.03643,8.432 -21.52948,20.42896 -21.52948,40.284484 0,18.53805 16.16652,33.12352 34.627048,33.12352 2.86747,0 5.54895,-0.29452 7.82747,-0.69747 1.89096,9.53243 2.976,16.47643 2.976,21.73095 0,10.32305 -5.25452,15.77905 -15.26747,15.77905 -2.38705,0 -4.464,-0.496 -4.66557,-0.496 -0.093,-0.10853 -0.29443,-0.20157 -0.29443,-0.29453 0,-0.20147 0.20147,-0.31 0.496,-0.40304 4.66547,-0.69748 9.31547,-4.66548 9.31547,-11.00496 0,-5.36304 -4.06104,-11.02052 -11.501038,-11.02052 -6.944,0 -11.408,5.65748 -11.408,12.19852"
     id="path34"
     style="stroke-width:0.992" />
</svg>
