<?xml version="1.0" encoding="UTF-8" standalone="no"?>
<svg
   width="175.31984mm"
   height="14.069304mm"
   viewBox="0 0 2484.8481 199.40745"
   version="1.2"
   id="svg37"
   xmlns="http://www.w3.org/2000/svg"
   xmlns:svg="http://www.w3.org/2000/svg">
  <defs
     id="defs37" />
  <title
     id="title1">Untitled score</title>
  <desc
     id="desc1">Generated by MuseScore Studio 4.6.5</desc>
  <polyline
     class="StaffLines"
     fill="none"
     stroke="#000000"
     stroke-width="2.73"
     stroke-linejoin="bevel"
     points="336.598,1061.13 2764.6,1061.13"
     id="polyline11"
     transform="translate(-279.75202,-1025.2167)" />
  <polyline
     class="StaffLines"
     fill="none"
     stroke="#000000"
     stroke-width="2.73"
     stroke-linejoin="bevel"
     points="336.598,1085.93 2764.6,1085.93"
     id="polyline12"
     transform="translate(-279.75202,-1025.2167)" />
  <polyline
     class="StaffLines"
     fill="none"
     stroke="#000000"
     stroke-width="2.73"
     stroke-linejoin="bevel"
     points="336.598,1110.73 2764.6,1110.73"
     id="polyline13"
     transform="translate(-279.75202,-1025.2167)" />
  <polyline
     class="StaffLines"
     fill="none"
     stroke="#000000"
     stroke-width="2.73"
     stroke-linejoin="bevel"
     points="336.598,1135.53 2764.6,1135.53"
     id="polyline14"
     transform="translate(-279.75202,-1025.2167)" />
  <polyline
     class="StaffLines"
     fill="none"
     stroke="#000000"
     stroke-width="2.73"
     stroke-linejoin="bevel"
     points="336.598,1160.33 2764.6,1160.33"
     id="polyline15"
     transform="translate(-279.75202,-1025.2167)" />
  <path
     class="InstrumentName"
     d="M 30.702982,67.403365 H 0.74998175 l -0.749999998122,13.91 H 2.1399817 c 0.703,-5.05 2.063,-11.55 8.4530003,-11.55 1.657,0 2.36,0.55 2.36,1.8 v 25.79 c 0,2.57 0,2.659995 -0.313,3.109995 -0.39,0.5 -1.344,0.71 -4.1870003,0.71 h -1.313 v 2.34 H 24.295982 v -2.34 h -1.296 c -2.797,0 -3.75,-0.21 -4.157,-0.71 -0.297,-0.45 -0.297,-0.539995 -0.297,-3.109995 v -25.79 c 0,-1.25 0.704,-1.8 2.344,-1.8 6.406,0 7.703,6.55 8.406,11.55 h 2.157 l -0.75,-13.91"
     id="path22" />
  <polyline
     class="BarLine"
     fill="none"
     stroke="#000000"
     stroke-width="4.46"
     stroke-linejoin="bevel"
     points="338.83,1059.77 338.83,1161.69"
     id="polyline29"
     transform="translate(-279.75202,-1025.2167)" />
  <polyline
     class="BarLine"
     fill="none"
     stroke="#000000"
     stroke-width="4.46"
     stroke-linejoin="bevel"
     points="2739.55,1059.77 2739.55,1161.69"
     id="polyline30"
     transform="translate(-279.75202,-1025.2167)" />
  <polyline
     class="BarLine"
     fill="none"
     stroke="#000000"
     stroke-width="13.64"
     stroke-linejoin="bevel"
     points="2757.78,1059.77 2757.78,1161.69"
     id="polyline31"
     transform="translate(-279.75202,-1025.2167)" />
  <path
     class="Clef"
     d="m 115.82346,131.34686 c -14.18243,0 -26.287978,-9.92 -26.287978,-24.9085 0,-12.089995 8.52502,-22.908995 17.267018,-30.550495 1.674,-1.395 3.27053,-2.7745 4.75853,-4.2625 0.88347,5.3475 1.58095,9.92 2.27843,14.0895 -9.03643,2.573 -15.174428,12.1985 -15.174428,21.420995 0,7.0525 5.455998,16.5695 13.391998,16.5695 0.79043,0 1.68947,-0.403 1.68947,-1.395 0,-0.7905 -0.89904,-1.3795 -2.18547,-2.17 -3.87505,-2.294 -6.06053,-4.96 -6.06053,-9.734 0,-6.045 4.57253,-10.911995 10.32296,-12.291495 l 5.75052,32.534495 c -1.984,0.403 -3.76652,0.6975 -5.75052,0.6975 m -2.976,-102.578995 c 0.992,-3.968 5.456,-14.384 10.61757,-14.384 1.488,0 3.968,4.7585 3.968,11.7025 0,10.2145 -7.73453,17.9645 -14.58557,24.8 -0.58896,-3.968 -1.08496,-7.936 -1.08496,-11.997 0,-3.7665 0.38748,-7.0525 1.08496,-10.1215 m 12.896,100.687995 c -2.07696,-11.7955 -4.75843,-27.5745 -5.456,-31.945495 10.01304,0 14.29104,6.943995 15.17452,11.717995 0.10852,0.7905 0.29452,1.8755 0.29452,3.069 0,7.1455 -2.976,14.291 -10.01304,17.1585 m -13.79496,67.859 c -2.17,0 -3.658,-1.3795 -3.658,-3.472 0,-1.984 0.88348,-3.565 2.57296,-4.557 0.40304,0.2015 0.496,0.2015 0.79052,0.3875 1.19348,0.6045 1.19348,0.6045 1.39505,0.806 1.87547,1.085 2.68147,2.077 2.68147,3.472 0,1.8755 -1.59652,3.3635 -3.782,3.3635 m 3.782,-11.904 c -1.488,-0.7905 -1.89104,-0.992 -2.18547,-1.1935 l -0.20157,-0.093 c -1.488,-0.899 -1.984,-1.5965 -1.984,-2.7745 0,-1.798 1.39504,-3.0845 3.37904,-3.0845 1.87548,0 3.06896,1.1935 3.06896,3.2705 0,1.5965 -0.58896,2.6815 -2.07696,3.875 m 27.66748,-75.299 c 0,-14.972995 -10.61748,-25.094495 -25.09452,-25.094495 -0.992,-5.952 -1.89096,-11.811 -2.77443,-17.36 10.416,-11.0205 17.74747,-23.5135 17.74747,-39.184 0,-9.0365 -2.77452,-16.368 -4.464,-19.9481004 -2.37147,-5.0533 -5.25452,-8.525300045566 -6.944,-8.525300045566 -0.682,0 -3.85947,1.193400045566 -7.03704,5.053300045566 -6.448,7.5481004 -8.23043,20.1341004 -8.23043,28.4731004 0,5.363 0.496,10.2145 2.18547,21.4365 -0.10852,0 -5.27,5.2545 -7.34704,7.037 -9.036428,8.339 -21.529478,20.429 -21.529478,40.175995 0,18.6465 16.16652,33.232 34.627048,33.232 2.86747,0 5.54895,-0.2945 7.936,-0.6975 1.78243,9.4395 2.976,16.4765 2.976,21.731 0,10.323 -5.36305,15.779 -15.376,15.779 -2.38705,0 -4.464,-0.496 -4.66557,-0.6045 -0.093,0 -0.29443,-0.093 -0.29443,-0.186 0,-0.2015 0.20147,-0.31 0.496,-0.403 4.66547,-0.6975 9.31547,-4.7585 9.31547,-11.005 0,-5.363 -4.06104,-11.0205 -11.50104,-11.0205 -6.943998,0 -11.314958,5.6575 -11.314958,12.1985 0,6.5565 4.96,15.19 18.351998,15.19 12.80296,0 19.04948,-7.254 19.04948,-19.9485 0,-3.8595 -0.58895,-8.3235 -1.58095,-13.981 -0.29453,-1.984 -0.79053,-5.0685 -1.488,-8.835 9.71843,-3.2705 16.95695,-13.299 16.95695,-23.5135 m -21.52948,71.331 c 0,-3.6735 -3.36347,-5.2545 -6.634,-5.2545 -4.16947,0 -8.246,2.573 -8.246,7.037 0,1.891 0.69748,3.286 2.09253,4.6655 -2.58853,0.992 -5.16157,2.976 -5.16157,6.0605 0,3.2705 2.976,5.456 7.34704,5.456 5.34748,0 9.114,-2.976 9.114,-7.254 0,-2.2785 -0.992,-4.154 -2.77452,-5.456 2.88305,-1.2865 4.26252,-2.8675 4.26252,-5.2545"
     id="path36"
     style="stroke-width:0.992" />
</svg>
