<?xml version="1.0" encoding="UTF-8" standalone="no"?>
<svg
   width="180.05792mm"
   height="12.445292mm"
   viewBox="0 0 2552.0021 176.38996"
   version="1.2"
   id="svg28"
   xmlns="http://www.w3.org/2000/svg"
   xmlns:svg="http://www.w3.org/2000/svg">
  <defs
     id="defs28" />
  <title
     id="title1">Untitled score</title>
  <desc
     id="desc1">Generated by MuseScore Studio 4.6.5</desc>
  <polyline
     class="StaffLines"
     fill="none"
     stroke="#000000"
     stroke-width="2.73"
     stroke-linejoin="bevel"
     points="212.598,1378.2 2764.6,1378.2"
     id="polyline11"
     transform="translate(-212.59801,-1342.2867)" />
  <polyline
     class="StaffLines"
     fill="none"
     stroke="#000000"
     stroke-width="2.73"
     stroke-linejoin="bevel"
     points="212.598,1403 2764.6,1403"
     id="polyline12"
     transform="translate(-212.59801,-1342.2867)" />
  <polyline
     class="StaffLines"
     fill="none"
     stroke="#000000"
     stroke-width="2.73"
     stroke-linejoin="bevel"
     points="212.598,1427.8 2764.6,1427.8"
     id="polyline13"
     transform="translate(-212.59801,-1342.2867)" />
  <polyline
     class="StaffLines"
     fill="none"
     stroke="#000000"
     stroke-width="2.73"
     stroke-linejoin="bevel"
     points="212.598,1452.6 2764.6,1452.6"
     id="polyline14"
     transform="translate(-212.59801,-1342.2867)" />
  <polyline
     class="StaffLines"
     fill="none"
     stroke="#000000"
     stroke-width="2.73"
     stroke-linejoin="bevel"
     points="212.598,1477.4 2764.6,1477.4"
     id="polyline15"
     transform="translate(-212.59801,-1342.2867)" />
  <path
     class="Clef"
     d="m 60.263995,130.74224 c -1.984,0.403 -3.85948,0.6045 -5.75052,0.6045 -14.18243,0 -26.28798,-9.92 -26.28798,-24.9085 0,-12.09 8.52502,-22.909 17.26702,-30.4575 1.674,-1.488 3.27053,-2.8675 4.75853,-4.3555 0.88347,5.3475 1.58095,10.013 2.27843,14.0895 -9.03643,2.6815 -15.17443,12.1985 -15.17443,21.5295 0,6.944 5.456,16.461 13.392,16.461 0.79043,0 1.68947,-0.403 1.68947,-1.2865 0,-0.899 -0.992,-1.395 -2.18547,-2.1855 -3.87505,-2.387 -6.06053,-4.96 -6.06053,-9.827 0,-6.045 4.464,-10.912 10.32296,-12.2915 l 5.75052,32.6275 m -8.72652,-101.9745 c 0.89904,-3.968 5.456,-14.384 10.61757,-14.384 1.488,0 3.85947,4.8515 3.85947,11.7025 0,10.323 -7.626,18.0575 -14.47704,24.8 -0.58896,-3.968 -1.08496,-7.8275 -1.08496,-11.997 0,-3.6735 0.29453,-7.0525 1.08496,-10.1215 m 22.816,83.6225 c 0,7.0525 -2.88296,14.291 -9.92,17.174 -2.07696,-11.904 -4.75843,-27.683 -5.456,-32.054 8.928,0 15.376,6.0605 15.376,14.88 m -43.648,48.8095 c 0,6.5565 5.05304,15.19 18.44504,15.19 4.66548,0 8.742,-1.1935 12.30696,-3.379 5.36304,-3.7665 6.74252,-10.323 6.74252,-16.5695 0,-3.8595 -0.58895,-8.3235 -1.58095,-13.981 -0.29453,-1.984 -0.89905,-4.96 -1.488,-8.835 9.71843,-3.1775 16.95695,-13.299 16.95695,-23.5135 0,-14.973 -10.61748,-25.0945 -25.09452,-25.0945 -0.992,-5.952 -1.984,-11.811 -2.88296,-17.36 10.52453,-11.0205 17.76296,-23.4205 17.76296,-39.184 0,-9.0365 -2.77443,-16.368 -4.37096,-19.9480997 -2.37147,-5.0533 -5.25452,-8.52529999602 -7.03704,-8.52529999602 -0.69748,0 -3.76643,1.19339999602 -7.03696,5.05329999602 -6.35504,7.5480997 -8.13747,20.2425997 -8.13747,28.5660997 0,5.363 0.496,10.23 2.18547,21.3435 -0.10852,0.093 -5.27,5.3475 -7.34704,7.037 -9.03643,8.432 -21.52948,20.429 -21.52948,40.2845 0,18.538 16.16652,33.1235 34.62705,33.1235 2.86747,0 5.54895,-0.2945 7.82747,-0.6975 1.89096,9.5325 2.976,16.4765 2.976,21.731 0,10.323 -5.25452,15.779 -15.26747,15.779 -2.38705,0 -4.464,-0.496 -4.66557,-0.496 -0.093,-0.1085 -0.29443,-0.2015 -0.29443,-0.2945 0,-0.2015 0.20147,-0.31 0.496,-0.403 4.66547,-0.6975 9.31547,-4.6655 9.31547,-11.005 0,-5.363 -4.06104,-11.0205 -11.50104,-11.0205 -6.944,0 -11.408,5.6575 -11.408,12.1985"
     id="path26"
     style="stroke-width:0.992" />
</svg>
