<?xml version="1.0" encoding="UTF-8" standalone="no"?>
<svg
   width="180.05792mm"
   height="12.445292mm"
   viewBox="0 0 2552.0021 176.38996"
   version="1.2"
   id="svg28"
   xmlns="http://www.w3.org/2000/svg"
   xmlns:svg="http://www.w3.org/2000/svg">
  <defs
     id="defs28" />
  <title
     id="title1">Untitled score</title>
  <desc
     id="desc1">Generated by MuseScore Studio 4.6.5</desc>
  <polyline
     class="StaffLines"
     fill="none"
     stroke="#000000"
     stroke-width="2.73"
     stroke-linejoin="bevel"
     points="212.598,1378.2 2764.6,1378.2"
     id="polyline11"
     transform="translate(-212.59801,-1342.2867)" />
  <polyline
     class="StaffLines"
     fill="none"
     stroke="#000000"
     stroke-width="2.73"
     stroke-linejoin="bevel"
     points="212.598,1403 2764.6,1403"
     id="polyline12"
     transform="translate(-212.59801,-1342.2867)" />
  <polyline
     class="StaffLines"
     fill="none"
     stroke="#000000"
     stroke-width="2.73"
     stroke-linejoin="bevel"
     points="212.598,1427.8 2764.6,1427.8"
     id="polyline13"
     transform="translate(-212.59801,-1342.2867)" />
  <polyline
     class="StaffLines"
     fill="none"
     stroke="#000000"
     stroke-width="2.73"
     stroke-linejoin="bevel"
     points="212.598,1452.6 2764.6,1452.6"
     id="polyline14"
     transform="translate(-212.59801,-1342.2867)" />
  <polyline
     class="StaffLines"
     fill="none"
     stroke="#000000"
     stroke-width="2.73"
     stroke-linejoin="bevel"
     points="212.598,1477.4 2764.6,1477.4"
     id="polyline15"
     transform="translate(-212.59801,-1342.2867)" />
  <path
     class="Clef"
     d="m 1285.6624,130.74224 c -1.984,0.403 -3.8595,0.6045 -5.7506,0.6045 -14.1824,0 -26.2879,-9.92 -26.2879,-24.9085 0,-12.09 8.525,-22.909 17.267,-30.4575 1.674,-1.488 3.2705,-2.8675 4.7585,-4.3555 0.8835,5.3475 1.581,10.013 2.2784,14.0895 -9.0364,2.6815 -15.1744,12.1985 -15.1744,21.5295 0,6.944 5.456,16.461 13.392,16.461 0.7904,0 1.6895,-0.403 1.6895,-1.2865 0,-0.899 -0.992,-1.395 -2.1855,-2.1855 -3.875,-2.387 -6.0605,-4.96 -6.0605,-9.827 0,-6.045 4.464,-10.912 10.3229,-12.2915 l 5.7506,32.6275 m -8.7266,-101.9745 c 0.8991,-3.968 5.456,-14.384 10.6176,-14.384 1.488,0 3.8595,4.8515 3.8595,11.7025 0,10.323 -7.626,18.0575 -14.4771,24.8 -0.5889,-3.968 -1.0849,-7.8275 -1.0849,-11.997 0,-3.6735 0.2945,-7.0525 1.0849,-10.1215 m 22.816,83.6225 c 0,7.0525 -2.8829,14.291 -9.92,17.174 -2.0769,-11.904 -4.7584,-27.683 -5.456,-32.054 8.928,0 15.376,6.0605 15.376,14.88 m -43.648,48.8095 c 0,6.5565 5.0531,15.19 18.4451,15.19 4.6655,0 8.742,-1.1935 12.3069,-3.379 5.3631,-3.7665 6.7426,-10.323 6.7426,-16.5695 0,-3.8595 -0.589,-8.3235 -1.581,-13.981 -0.2945,-1.984 -0.899,-4.96 -1.488,-8.835 9.7184,-3.1775 16.957,-13.299 16.957,-23.5135 0,-14.973 -10.6175,-25.0945 -25.0946,-25.0945 -0.992,-5.952 -1.984,-11.811 -2.8829,-17.36 10.5245,-11.0205 17.7629,-23.4205 17.7629,-39.184 0,-9.0365 -2.7744,-16.368 -4.3709,-19.9480997 -2.3715,-5.0533 -5.2545,-8.52529999602 -7.0371,-8.52529999602 -0.6974,0 -3.7664,1.19339999602 -7.0369,5.05329999602 -6.3551,7.5480997 -8.1375,20.2425997 -8.1375,28.5660997 0,5.363 0.496,10.23 2.1855,21.3435 -0.1085,0.093 -5.27,5.3475 -7.3471,7.037 -9.0364,8.432 -21.5294,20.429 -21.5294,40.2845 0,18.538 16.1665,33.1235 34.627,33.1235 2.8675,0 5.549,-0.2945 7.8275,-0.6975 1.8909,9.5325 2.976,16.4765 2.976,21.731 0,10.323 -5.2545,15.779 -15.2675,15.779 -2.387,0 -4.464,-0.496 -4.6656,-0.496 -0.093,-0.1085 -0.2944,-0.2015 -0.2944,-0.2945 0,-0.2015 0.2015,-0.31 0.496,-0.403 4.6655,-0.6975 9.3155,-4.6655 9.3155,-11.005 0,-5.363 -4.0611,-11.0205 -11.5011,-11.0205 -6.944,0 -11.408,5.6575 -11.408,12.1985"
     id="path26"
     style="stroke-width:0.992" />
</svg>
