<?xml version="1.0" encoding="UTF-8" standalone="no"?>
<svg
   width="4.3886614mm"
   height="6.7333584mm"
   viewBox="0 0 62.2015 95.433428"
   version="1.2"
   id="svg28"
   xmlns="http://www.w3.org/2000/svg"
   xmlns:svg="http://www.w3.org/2000/svg">
  <defs
     id="defs28" />
  <title
     id="title1">Untitled score</title>
  <desc
     id="desc1">Generated by MuseScore Studio 4.6.5</desc>
  <path
     class="Clef"
     d="m 1.2864698,1.2864898 c -0.69749994,0 -1.2864999428,0.6046 -1.2864999428,1.2866 V 92.86059 c 0,0.6975 0.5890000028,1.2865 1.2864999428,1.2865 h 7.1455 c 0.6975,0 1.2865,-0.589 1.2865,-1.2865 V 2.5730898 c 0,-0.682 -0.589,-1.2866 -1.2865,-1.2866 h -7.1455 M 62.20147,73.71809 c 0,-12.307 -6.541,-21.9325 -19.5455,-21.9325 -2.2785,0 -3.968,0.2015 -7.8275,2.573 -0.2015,-0.3875 -2.1855,-4.3555 -5.456,-6.634 3.2705,-2.294 5.2545,-6.262 5.456,-6.6495 3.7665,2.2785 5.053,2.573 9.3155,2.573 12.1055,0 18.0575,-11.2065 18.0575,-21.917 0,-13.8880002 -10.2145,-21.731000226284 -22.227,-21.731000226284 -7.44,0 -18.0575,3.069000026284 -18.0575,12.198400226284 0,4.8671 3.379,8.0446 8.246,8.0446 4.3555,0 7.44,-3.1775 7.44,-7.5486 0,-5.4560002 -3.5805,-7.2384002 -8.339,-7.2384002 2.2785,-1.581 5.363,-2.48 8.432,-2.48 10.416,0 12.1055,8.3390002 12.1055,17.2670002 0,7.6414 -0.2015,18.7395 -8.928,18.7395 -8.7265,0 -10.509,-9.4241 -10.7105,-10.4161 0,-0.093 0,-1.3794 -1.395,-1.3794 -1.3795,0 -1.488,1.2865 -1.488,1.3794 -0.8835,5.456 -3.565,14.9886 -9.1295,17.2671 V 2.5730898 c 0,-0.682 -0.496,-1.2866 -1.1935,-1.2866 -0.682,0 -1.2865,0.6046 -1.2865,1.2866 V 92.86059 c 0,0.6975 0.6045,1.2865 1.2865,1.2865 0.6975,0 1.1935,-0.589 1.1935,-1.2865 v -43.2605 c 5.859,2.387 8.0445,11.811 9.1295,17.36 0,0.1085 0.1085,1.2865 1.488,1.2865 1.395,0 1.395,-1.178 1.395,-1.2865 0.2015,-1.085 1.984,-10.509 10.7105,-10.509 8.7265,0 8.928,11.1135 8.928,18.755 0,8.928 -1.6895,17.2515 -12.1055,17.2515 -3.069,0 -6.1535,-0.8835 -8.432,-2.48 0.1085,0 0.496,0.1085 1.1005,0.1085 4.3555,0 7.2385,-3.0845 7.2385,-7.347 0,-4.371 -3.0845,-7.533 -7.44,-7.533 -4.867,0 -8.246,3.162 -8.246,8.029 0,9.1295 10.6175,12.1985 18.0575,12.1985 12.0125,0 22.227,-7.8275 22.227,-21.7155"
     id="path27"
     style="stroke-width:0.992" />
</svg>
