<?xml version="1.0" encoding="UTF-8" standalone="no"?>
<svg
   width="4.647851mm"
   height="6.0750165mm"
   viewBox="0 0 65.875054 86.102598"
   version="1.2"
   id="svg28"
   xmlns="http://www.w3.org/2000/svg"
   xmlns:svg="http://www.w3.org/2000/svg">
  <defs
     id="defs28" />
  <title
     id="title1">Untitled score</title>
  <desc
     id="desc1">Generated by MuseScore Studio 4.6.5</desc>
  <path
     class="Clef"
     d="m 56.342524,12.5862 c 0,2.79 2.18548,4.96 4.774,4.96 2.57295,0 4.75853,-2.17 4.75853,-4.96 0,-2.7743994 -2.18558,-5.0529994 -4.75853,-5.0529994 -2.58852,0 -4.774,2.2786 -4.774,5.0529994 M 25.203054,2.0064349e-4 c -7.54853,0 -13.59358,4.35559995651 -13.702,4.35559995651 C 5.6575044,8.6182006 1.8910044,15.1747 1.8910044,22.4132 c 0,7.2385 4.154,12.6015 11.5009996,12.6015 6.35505,0 11.31505,-4.2625 11.31505,-10.819 0,-5.6575 -4.96,-10.3075 -10.52453,-10.3075 -1.19347,0 -2.27852,0.186 -3.17747,0.496 -0.992,0.3876 -2.6660496,1.3795 -3.4720496,2.077 0.6975,-4.371 3.6735196,-8.7264994 7.5484696,-10.8189994 2.48,-1.3795 5.65758,-1.984 9.12958,-1.984 10.12147,0 15.08147,8.1375994 15.08147,24.7999994 0,12.8961 -8.246,31.4496 -17.96452,40.1916 -10.32295,9.424 -20.0414996,13.888 -20.1344996,13.888 0,0 -1.1934999681594,0.682 -1.1934999681594,1.8754 0,0.2015 0.092999998159,0.2946 0.092999998159,0.496 0.31,0.992 1.19349997,1.1935 1.79799997,1.1935 0.093,0 0.3875,-0.093 0.496,-0.093 0.093,0 11.4080496,-4.6655 20.4289996,-11.718 13.888,-10.0131 29.55852,-27.6675 29.55852,-45.9266 0,-17.267 -9.31547,-28.3649993565 -27.17147,-28.3649993565 M 56.342524,37.0917 c 0,2.7745 2.18548,5.0685 4.774,5.0685 2.57295,0 4.75853,-2.294 4.75853,-5.0685 0,-2.7746 -2.18558,-5.0531 -4.75853,-5.0531 -2.58852,0 -4.774,2.2785 -4.774,5.0531"
     id="path28"
     style="stroke-width:0.992" />
</svg>
