<?xml version="1.0" encoding="UTF-8" standalone="no"?>
<svg
   width="4.4794302mm"
   height="14.069296mm"
   viewBox="0 0 63.487987 199.40735"
   version="1.2"
   id="svg37"
   xmlns="http://www.w3.org/2000/svg"
   xmlns:svg="http://www.w3.org/2000/svg">
  <defs
     id="defs37" />
  <title
     id="title1">Untitled score</title>
  <desc
     id="desc1">Generated by MuseScore Studio 4.6.5</desc>
  <path
     class="Clef"
     d="m 35.913438,131.34677 c -14.18243,0 -26.2879699,-9.92 -26.2879699,-24.9084 0,-12.0901 8.5250199,-22.909 17.2670199,-30.5505 1.674,-1.3951 3.27052,-2.7745 4.75852,-4.2625 0.88348,5.3474 1.58095,9.92 2.27843,14.0894 -9.03643,2.5731 -15.17443,12.1986 -15.17443,21.4211 0,7.0525 5.456,16.5695 13.392,16.5695 0.79043,0 1.68948,-0.403 1.68948,-1.395 0,-0.7905 -0.89905,-1.3796 -2.18548,-2.17 -3.87505,-2.294 -6.06052,-4.96 -6.06052,-9.734 0,-6.045 4.57252,-10.9121 10.32295,-12.2916 l 5.75052,32.5346 c -1.984,0.403 -3.76652,0.6974 -5.75052,0.6974 m -2.976,-102.5789 c 0.992,-3.968 5.456,-14.384 10.61757,-14.384 1.488,0 3.968,4.7584 3.968,11.7024 0,10.2145 -7.73452,17.9645 -14.58557,24.8 -0.58895,-3.968 -1.08495,-7.936 -1.08495,-11.9969 0,-3.7666 0.38747,-7.0526 1.08495,-10.1215 m 12.896,100.688 c -2.07695,-11.7955 -4.75843,-27.5745 -5.456,-31.9456 10.01305,0 14.29105,6.9441 15.17452,11.7181 0.10853,0.7905 0.29453,1.8755 0.29453,3.069 0,7.1455 -2.976,14.291 -10.01305,17.1585 m -13.79495,67.8589 c -2.17,0 -3.658,-1.3794 -3.658,-3.472 0,-1.984 0.88347,-3.5649 2.57295,-4.5569 0.40305,0.2015 0.496,0.2015 0.79052,0.3875 1.19348,0.6045 1.19348,0.6045 1.39505,0.806 1.87548,1.085 2.68148,2.077 2.68148,3.472 0,1.8754 -1.59653,3.3634 -3.782,3.3634 m 3.782,-11.904 c -1.488,-0.7904 -1.89105,-0.992 -2.18548,-1.1934 l -0.20157,-0.093 c -1.488,-0.899 -1.984,-1.5965 -1.984,-2.7745 0,-1.798 1.39505,-3.0845 3.37905,-3.0845 1.87547,0 3.06895,1.1934 3.06895,3.2705 0,1.5965 -0.58895,2.6815 -2.07695,3.8749 m 27.66747,-75.2989 c 0,-14.9731 -10.61747,-25.0945 -25.09452,-25.0945 -0.992,-5.952 -1.89095,-11.8111 -2.77443,-17.36 10.416,-11.0206 17.74748,-23.5135 17.74748,-39.184 0,-9.0366 -2.77453,-16.368 -4.464,-19.9482 -2.37148,-5.0532 -5.25453,-8.525199966417 -6.944,-8.525199966417 -0.682,0 -3.85948,1.193399966417 -7.03705,5.053199966417 -6.448,7.5482 -8.23043,20.1342 -8.23043,28.4731 0,5.3631 0.496,10.2145 2.18548,21.4365 -0.10853,0 -5.27,5.2546 -7.34705,7.0371 -9.03643,8.3389 -21.529479956141,20.4289 -21.529479956141,40.176 0,18.6465 16.166529956141,33.232 34.627049956141,33.232 2.86748,0 5.54895,-0.2945 7.936,-0.6975 1.78243,9.4395 2.976,16.4764 2.976,21.731 0,10.323 -5.36305,15.779 -15.376,15.779 -2.38705,0 -4.464,-0.496 -4.66557,-0.6045 -0.0929,0 -0.29443,-0.093 -0.29443,-0.186 0,-0.2015 0.20148,-0.31 0.496,-0.4031 4.66548,-0.6974 9.31548,-4.7584 9.31548,-11.0049 0,-5.3631 -4.06105,-11.0205 -11.50105,-11.0205 -6.944,0 -11.31495,5.6574 -11.31495,12.1985 0,6.5565 4.96,15.19 18.352,15.19 12.80295,0 19.04947,-7.254 19.04947,-19.9485 0,-3.8595 -0.58895,-8.3235 -1.58095,-13.981 -0.29452,-1.984 -0.79052,-5.0685 -1.488,-8.835 9.71843,-3.2706 16.95695,-13.299 16.95695,-23.5135 m -21.52947,71.3309 c 0,-3.6734 -3.36348,-5.2544 -6.634,-5.2544 -4.16948,0 -8.246,2.573 -8.246,7.037 0,1.891 0.69747,3.286 2.09252,4.6654 -2.58852,0.992 -5.16157,2.976 -5.16157,6.0606 0,3.2705 2.976,5.456 7.34705,5.456 5.34747,0 9.114,-2.976 9.114,-7.254 0,-2.2786 -0.992,-4.154 -2.77453,-5.456 2.88305,-1.2866 4.26253,-2.8675 4.26253,-5.2546"
     id="path36"
     style="stroke-width:0.992" />
</svg>
