<?xml version="1.0" encoding="UTF-8" standalone="no"?>
<svg
   width="4.479434mm"
   height="12.445283mm"
   viewBox="0 0 63.488042 176.38984"
   version="1.2"
   id="svg28"
   xmlns="http://www.w3.org/2000/svg"
   xmlns:svg="http://www.w3.org/2000/svg">
  <defs
     id="defs28" />
  <title
     id="title1">Untitled score</title>
  <desc
     id="desc1">Generated by MuseScore Studio 4.6.5</desc>
  <path
     class="Clef"
     d="m 41.664058,130.74267 c -1.984,0.4029 -3.8594,0.6044 -5.7505,0.6044 -14.1824,0 -26.2880004,-9.92 -26.2880004,-24.9085 0,-12.090007 8.5251004,-22.909007 17.2671004,-30.457507 1.674,-1.488 3.2705,-2.8675 4.7585,-4.3555 0.8835,5.3475 1.5809,10.013 2.2784,14.0895 -9.0364,2.6815 -15.1744,12.1985 -15.1744,21.529507 0,6.944 5.456,16.461 13.392,16.461 0.7904,0 1.6895,-0.4029 1.6895,-1.2865 0,-0.899 -0.992,-1.395 -2.1855,-2.1855 -3.8751,-2.387 -6.0605,-4.96 -6.0605,-9.827 0,-6.045 4.464,-10.912007 10.3229,-12.291507 l 5.7505,32.627607 m -8.7265,-101.974607 c 0.8991,-3.968 5.456,-14.384 10.6176,-14.384 1.488,0 3.8595,4.8515 3.8595,11.7025 0,10.323 -7.626,18.0575 -14.4771,24.8 -0.5889,-3.968 -1.0849,-7.8275 -1.0849,-11.997 0,-3.6735 0.2945,-7.0525 1.0849,-10.1215 m 22.816,83.622507 c 0,7.0525 -2.8829,14.291 -9.92,17.1741 -2.0769,-11.9041 -4.7584,-27.6831 -5.456,-32.054107 8.928,0 15.376,6.060507 15.376,14.880007 m -43.648,48.8095 c 0,6.5566 5.0531,15.19 18.4451,15.19 4.6654,0 8.742,-1.1934 12.3069,-3.379 5.3631,-3.7664 6.7425,-10.323 6.7425,-16.5695 0,-3.8595 -0.5889,-8.3235 -1.5809,-13.9809 -0.2945,-1.984 -0.8991,-4.96 -1.488,-8.8351 9.7184,-3.1775 16.9569,-13.2989 16.9569,-23.5135 0,-14.973007 -10.6174,-25.094507 -25.0945,-25.094507 -0.992,-5.952 -1.984,-11.811 -2.8829,-17.36 10.5245,-11.0205 17.7629,-23.4205 17.7629,-39.184 0,-9.0365 -2.7744,-16.368 -4.3709,-19.9480997 -2.3715,-5.0533 -5.2546,-8.525299923 -7.0371,-8.525299923 -0.6975,0 -3.7664,1.193399923 -7.0369,5.053299923 -6.3551,7.5480997 -8.1375,20.2425997 -8.1375,28.5660997 0,5.363 0.496,10.23 2.1855,21.3435 -0.1086,0.093 -5.27,5.3475 -7.3471,7.037 -9.0364,8.432 -21.52950038617,20.429 -21.52950038617,40.284507 0,18.5381 16.16660038617,33.1235 34.62710038617,33.1235 2.8675,0 5.5489,-0.2945 7.8275,-0.6974 1.8909,9.5324 2.976,16.4764 2.976,21.7309 0,10.3231 -5.2546,15.7791 -15.2675,15.7791 -2.3871,0 -4.464,-0.496 -4.6656,-0.496 -0.093,-0.1086 -0.2944,-0.2016 -0.2944,-0.2946 0,-0.2014 0.2015,-0.31 0.496,-0.403 4.6655,-0.6975 9.3155,-4.6655 9.3155,-11.005 0,-5.363 -4.0611,-11.0205 -11.5011,-11.0205 -6.944,0 -11.408,5.6575 -11.408,12.1985"
     id="path26"
     style="stroke-width:0.992" />
</svg>
